<svg 
 xmlns="http://www.w3.org/2000/svg"
 xmlns:xlink="http://www.w3.org/1999/xlink"
 width="946px" height="1128px">
<path fill-rule="evenodd"  fill="rgb(255, 255, 255)"
 d="M944.000,497.000 C944.000,502.666 944.000,508.334 944.000,514.000 C942.093,522.399 941.946,534.028 940.000,542.000 C938.823,546.823 940.204,550.698 938.000,554.000 C934.683,531.749 914.272,529.267 914.000,502.000 C917.183,497.098 915.172,467.420 915.000,459.000 C914.187,419.261 907.300,379.575 896.000,349.000 C888.576,328.911 883.241,310.717 875.000,292.000 C829.300,188.203 740.087,110.111 634.000,66.000 C631.667,54.668 629.333,43.332 627.000,32.000 C636.118,33.833 644.418,38.688 652.000,42.000 C669.083,49.463 685.626,54.636 701.000,64.000 C711.707,70.521 722.617,78.379 733.000,85.000 C813.507,136.338 872.733,210.475 912.000,303.000 C920.070,322.016 923.659,341.073 930.000,362.000 C935.415,379.872 937.386,401.444 942.000,421.000 C944.995,433.697 941.071,445.672 944.000,459.000 C946.106,468.586 946.190,487.421 944.000,497.000 ZM709.000,465.000 C729.711,459.735 757.869,463.827 775.000,469.000 C824.174,483.850 849.686,500.624 877.000,537.000 C881.333,541.000 885.667,545.000 890.000,549.000 C894.318,554.813 899.099,562.294 902.000,569.000 C906.493,579.387 907.301,591.833 910.000,604.000 C914.382,623.754 904.164,652.816 899.000,665.000 C882.422,704.113 861.388,730.011 827.000,751.000 C814.916,758.376 801.582,762.465 789.000,769.000 C756.163,786.055 729.590,807.354 699.000,826.000 C663.195,847.825 616.056,861.046 573.000,875.000 C531.785,888.358 487.203,890.823 442.000,901.000 C438.000,901.000 434.000,901.000 430.000,901.000 C425.088,902.099 415.912,902.092 411.000,901.000 C402.732,899.162 385.691,902.978 379.000,905.000 C354.829,912.304 330.230,919.887 308.000,929.000 C290.532,936.161 272.192,938.767 257.000,948.000 C240.701,957.905 219.890,977.968 192.000,969.000 C164.343,960.107 152.130,933.647 141.000,908.000 C129.514,881.534 122.517,852.684 115.000,821.000 C112.776,811.625 113.920,801.607 112.000,793.000 C112.000,787.001 112.000,780.999 112.000,775.000 C108.696,759.329 109.711,725.910 113.000,711.000 C113.000,706.334 113.000,701.666 113.000,697.000 C115.829,684.378 113.915,670.360 117.000,657.000 C120.163,643.303 119.492,628.360 123.000,614.000 C131.440,579.454 134.409,543.718 144.000,510.000 C151.986,481.925 158.194,448.404 169.000,422.000 C177.566,401.068 186.821,379.940 194.000,358.000 C200.439,338.323 199.077,316.253 204.000,294.000 C206.939,280.714 202.750,268.082 208.000,258.000 C212.705,248.966 224.477,250.268 233.000,245.000 C243.148,238.727 254.882,227.429 262.000,218.000 C276.825,198.362 292.263,178.490 306.000,158.000 C318.263,139.708 328.778,120.373 342.000,103.000 C348.452,94.523 371.256,78.940 381.000,73.000 C385.000,71.667 389.000,70.333 393.000,69.000 C402.711,68.643 410.680,70.962 413.000,78.000 C417.498,84.680 416.113,97.042 419.000,105.000 C428.767,131.927 444.299,173.178 437.000,206.000 C430.877,210.099 415.558,214.071 407.000,208.000 C395.826,203.755 384.516,176.971 380.000,165.000 C375.881,154.082 377.517,143.757 364.000,142.000 C361.789,144.184 360.997,143.142 360.000,147.000 C362.926,151.318 362.174,157.406 364.000,163.000 C368.129,175.651 373.302,190.023 380.000,201.000 C382.924,205.791 388.797,215.691 394.000,218.000 C398.431,219.966 401.474,217.297 404.000,221.000 C399.966,225.486 399.230,232.695 396.000,238.000 C389.986,247.878 381.282,259.336 372.000,266.000 C365.747,270.490 356.695,274.529 349.000,277.000 C345.531,278.114 341.633,277.307 339.000,279.000 C339.333,279.000 339.667,279.000 340.000,279.000 C348.061,284.502 380.639,280.136 389.000,278.000 C411.599,272.228 427.311,267.690 443.000,256.000 C450.797,250.191 453.453,241.276 459.000,233.000 C464.349,225.019 475.874,217.256 484.000,212.000 C484.000,213.000 484.000,214.000 484.000,215.000 C477.810,222.707 482.430,238.096 484.000,246.000 C477.040,252.551 472.737,262.224 465.000,268.000 C448.224,280.525 428.564,286.767 405.000,293.000 C392.387,296.337 364.937,292.237 364.000,307.000 C360.860,311.955 362.002,323.779 362.000,331.000 C361.996,347.819 358.390,367.222 362.000,383.000 C362.000,390.333 362.000,397.667 362.000,405.000 C361.999,418.811 361.223,433.898 364.000,446.000 C364.333,453.666 364.667,461.334 365.000,469.000 C369.810,488.346 378.815,506.525 385.000,525.000 C391.212,543.557 393.683,561.083 399.000,581.000 C403.173,596.631 406.668,620.931 400.000,636.000 C400.667,636.000 401.333,636.000 402.000,636.000 C407.753,628.080 419.151,621.927 427.000,616.000 C430.666,612.000 434.334,608.000 438.000,604.000 C447.732,596.628 454.517,586.164 464.000,579.000 C478.041,568.392 492.537,558.179 510.000,551.000 C522.645,545.802 537.891,544.292 552.000,541.000 C562.010,538.664 573.958,541.516 582.000,537.000 C584.374,535.667 585.326,532.222 587.000,530.000 C592.168,523.138 603.213,511.108 610.000,506.000 C624.445,495.129 640.035,485.368 658.000,478.000 C673.496,471.644 692.159,469.281 709.000,465.000 ZM598.000,197.000 C589.980,218.180 563.182,226.581 544.000,237.000 C538.690,239.884 532.037,247.411 522.000,245.000 C510.099,242.141 506.215,235.184 499.000,228.000 C497.293,203.863 503.629,189.536 519.000,180.000 C524.333,178.000 529.667,176.000 535.000,174.000 C541.995,169.753 547.415,162.586 554.000,158.000 C557.859,155.313 563.123,154.785 567.000,152.000 C548.675,149.289 553.912,132.597 550.000,115.000 C545.373,94.188 541.625,72.607 536.000,53.000 C534.000,43.334 532.000,33.666 530.000,24.000 C533.491,8.530 548.018,9.363 559.000,2.000 C565.078,1.923 568.484,2.967 573.000,4.000 C583.416,22.078 588.883,45.254 595.000,68.000 C595.667,74.333 596.333,80.667 597.000,87.000 C599.838,99.420 600.403,119.406 596.000,131.000 C591.119,143.851 580.316,144.629 570.000,152.000 C584.788,153.047 604.705,179.292 598.000,197.000 ZM541.000,113.000 C542.269,118.484 540.976,128.072 540.000,132.000 C538.859,136.592 540.015,139.636 538.000,143.000 C526.959,161.429 501.101,152.802 488.000,144.000 C488.628,166.319 481.561,183.198 460.000,183.000 C452.906,177.924 445.172,176.880 441.000,169.000 C435.904,159.373 439.763,144.759 436.000,133.000 C429.027,111.211 404.630,62.026 428.000,45.000 C432.922,41.414 442.183,33.957 453.000,37.000 C455.156,37.606 457.328,39.291 460.000,40.000 C475.380,65.768 479.917,101.169 487.000,135.000 C487.333,135.000 487.667,135.000 488.000,135.000 C488.000,131.667 488.000,128.333 488.000,125.000 C486.000,113.001 484.000,100.999 482.000,89.000 C476.667,69.669 471.333,50.331 466.000,31.000 C466.782,24.454 471.534,15.714 475.000,11.000 C479.717,4.584 488.387,4.656 495.000,0.000 C501.903,-0.077 505.542,1.234 511.000,2.000 C527.197,23.454 530.379,55.329 538.000,86.000 C540.207,94.881 539.064,104.635 541.000,113.000 ZM381.000,32.000 C375.840,35.318 367.947,33.970 363.000,37.000 C353.682,42.708 345.043,51.141 336.000,57.000 C326.495,63.159 313.541,64.427 303.000,69.000 C280.349,78.826 257.372,90.155 237.000,103.000 C171.146,144.521 123.748,201.137 83.000,268.000 C73.032,284.356 67.756,302.592 60.000,321.000 C49.257,346.496 43.482,374.766 36.000,405.000 C33.229,416.199 34.473,428.262 32.000,439.000 C32.000,444.000 32.000,449.001 32.000,454.000 C29.442,465.698 29.250,504.947 32.000,517.000 C37.648,541.754 36.646,567.400 44.000,590.000 C50.360,609.546 56.011,629.502 64.000,648.000 C66.961,654.856 72.723,662.997 75.000,670.000 C77.146,676.601 74.177,687.882 73.000,693.000 C72.667,703.666 72.333,714.334 72.000,725.000 C71.667,725.000 71.333,725.000 71.000,725.000 C71.000,724.667 71.000,724.333 71.000,724.000 C70.667,724.000 70.333,724.000 70.000,724.000 C61.171,704.238 47.943,685.402 39.000,665.000 C26.980,637.576 19.732,607.757 11.000,577.000 C10.000,569.667 9.000,562.333 8.000,555.000 C-5.025,502.185 -0.737,423.149 13.000,375.000 C15.186,367.339 14.593,361.359 17.000,354.000 C25.082,329.284 32.913,304.909 43.000,282.000 C85.514,185.441 158.369,116.844 245.000,64.000 C275.526,45.380 312.483,33.911 349.000,22.000 C360.441,18.268 372.831,16.899 384.000,14.000 C390.148,12.404 397.368,14.031 402.000,11.000 C404.076,11.372 403.924,11.242 405.000,12.000 C398.438,15.693 392.187,20.449 386.000,25.000 C384.334,27.333 382.666,29.667 381.000,32.000 ZM9.115,997.142 C13.166,996.623 22.097,996.363 35.912,996.363 C44.065,996.363 51.882,996.468 59.360,996.675 C71.668,997.038 81.587,1000.908 89.118,1008.282 C96.803,1015.865 100.647,1025.783 100.647,1038.039 C100.647,1050.608 97.348,1060.786 90.754,1068.576 C83.690,1076.833 73.953,1080.962 61.541,1080.962 C59.463,1080.962 56.334,1080.845 52.154,1080.611 C47.973,1080.378 44.844,1080.261 42.767,1080.261 C40.534,1080.261 39.418,1081.222 39.418,1083.143 C39.418,1085.533 39.651,1089.090 40.119,1093.815 C40.586,1098.542 40.820,1102.073 40.820,1104.410 C40.820,1105.605 40.275,1106.202 39.184,1106.202 C36.016,1106.202 31.264,1106.110 24.928,1105.929 C18.592,1105.746 13.840,1105.656 10.673,1105.656 C9.166,1105.656 8.414,1104.904 8.414,1103.397 C8.414,1097.633 8.504,1088.973 8.686,1077.418 C8.868,1065.863 8.959,1057.203 8.959,1051.438 C8.959,1035.131 8.258,1017.993 6.856,1000.024 L6.778,998.934 C6.673,997.948 7.452,997.350 9.115,997.142 ZM38.444,1047.660 C38.573,1050.803 38.639,1053.179 38.639,1054.788 C38.639,1055.827 43.313,1056.346 52.661,1056.346 C63.929,1056.346 69.565,1050.659 69.565,1039.286 C69.565,1027.186 63.670,1021.135 51.882,1021.135 C43.572,1021.135 39.210,1021.602 38.795,1022.537 C38.431,1023.213 38.249,1029.211 38.249,1040.532 C38.249,1042.142 38.314,1044.518 38.444,1047.660 ZM145.770,1028.302 C153.922,1028.302 160.362,1031.159 165.089,1036.871 C165.296,1037.131 165.478,1037.260 165.634,1037.260 C166.101,1037.260 166.633,1036.002 167.231,1033.482 C167.827,1030.964 168.542,1029.704 169.373,1029.704 C171.294,1029.704 174.955,1030.249 180.357,1031.340 C185.498,1032.379 189.185,1033.262 191.419,1033.988 C192.198,1034.300 192.587,1034.716 192.587,1035.235 C192.587,1035.443 192.509,1035.988 192.354,1036.871 C190.691,1046.271 189.861,1056.217 189.861,1066.706 C189.861,1070.706 190.094,1076.652 190.562,1084.545 C191.029,1092.440 191.263,1098.360 191.263,1102.307 C191.263,1104.384 190.354,1105.500 188.536,1105.656 C182.096,1106.124 174.721,1106.357 166.413,1106.357 C165.426,1106.357 164.764,1104.865 164.427,1101.878 C164.088,1098.892 163.686,1097.373 163.219,1097.321 C162.803,1097.529 162.258,1097.971 161.583,1098.645 C155.766,1104.514 149.534,1107.448 142.887,1107.448 C132.760,1107.448 124.373,1103.449 117.726,1095.451 C111.441,1087.973 108.300,1079.041 108.300,1068.654 C108.300,1056.657 111.545,1046.998 118.037,1039.675 C124.788,1032.093 134.032,1028.302 145.770,1028.302 ZM139.148,1078.002 C142.056,1081.014 145.587,1082.520 149.742,1082.520 C154.156,1082.520 157.766,1081.079 160.570,1078.197 C163.375,1075.314 164.777,1071.641 164.777,1067.174 C164.777,1062.760 163.387,1059.111 160.609,1056.229 C157.831,1053.347 154.208,1051.905 149.742,1051.905 C145.275,1051.905 141.666,1053.334 138.914,1056.190 C136.161,1059.047 134.786,1062.708 134.786,1067.174 C134.786,1071.380 136.239,1074.991 139.148,1078.002 ZM205.304,1033.054 C208.575,1032.691 212.938,1032.119 218.391,1031.340 C226.648,1029.731 231.295,1028.925 232.335,1028.925 C232.906,1028.925 233.347,1030.678 233.659,1034.183 C233.958,1037.548 234.377,1039.280 234.916,1039.415 C234.808,1039.187 237.620,1037.393 243.358,1034.027 C249.512,1030.418 254.899,1028.613 259.522,1028.613 C266.116,1028.613 271.622,1030.171 276.037,1033.287 C280.970,1036.871 283.437,1041.856 283.437,1048.244 L283.437,1073.094 C283.437,1076.471 283.463,1081.521 283.515,1088.246 C283.566,1094.972 283.593,1100.022 283.593,1103.397 C283.593,1104.799 282.865,1105.605 281.412,1105.812 C279.957,1106.019 276.166,1106.124 270.038,1106.124 C263.495,1106.124 259.444,1105.968 257.886,1105.656 C256.328,1105.345 255.549,1104.281 255.549,1102.462 C255.549,1100.022 255.627,1096.335 255.783,1091.401 C255.938,1086.467 256.016,1082.754 256.016,1080.261 C256.016,1078.340 255.964,1075.470 255.860,1071.653 C255.756,1067.836 255.705,1064.967 255.705,1063.045 C255.705,1055.931 252.614,1052.373 246.435,1052.373 C244.409,1052.373 242.045,1053.256 239.346,1055.021 C236.437,1056.996 234.983,1058.943 234.983,1060.864 L234.983,1102.930 C234.983,1104.644 234.178,1105.605 232.568,1105.812 C230.750,1106.019 227.038,1106.124 221.429,1106.124 C215.353,1106.124 211.405,1105.968 209.588,1105.656 C207.978,1105.397 207.173,1104.540 207.173,1103.086 C207.173,1099.035 207.199,1092.933 207.251,1084.779 C207.302,1076.626 207.329,1070.498 207.329,1066.395 C207.329,1053.463 206.316,1043.311 204.291,1035.936 C204.186,1035.469 204.135,1035.079 204.135,1034.767 C204.135,1033.937 204.525,1033.365 205.304,1033.054 ZM326.846,1098.645 C317.082,1098.645 309.058,1095.140 302.775,1088.129 C296.699,1081.378 293.661,1073.069 293.661,1063.201 C293.661,1053.282 296.568,1045.050 302.385,1038.507 C308.461,1031.704 316.407,1028.302 326.223,1028.302 C334.064,1028.302 340.062,1031.106 344.217,1036.715 C345.048,1037.858 345.620,1038.429 345.931,1038.429 C346.399,1038.429 346.632,1037.494 346.632,1035.624 C346.632,1031.470 347.100,1029.392 348.035,1029.392 C348.865,1029.392 353.357,1029.821 361.511,1030.678 C369.664,1031.535 373.897,1032.015 374.209,1032.119 C375.091,1032.430 375.533,1033.106 375.533,1034.144 C375.533,1037.728 375.416,1043.077 375.183,1050.192 C374.949,1057.307 374.832,1062.656 374.832,1066.239 C374.832,1068.369 374.858,1071.563 374.910,1075.821 C374.961,1080.080 374.988,1083.273 374.988,1085.402 C374.988,1100.203 371.872,1110.823 365.640,1117.263 C359.200,1123.858 348.502,1127.157 333.545,1127.157 C329.183,1127.157 323.236,1126.455 315.706,1125.053 C306.098,1123.287 301.295,1121.209 301.295,1118.821 C301.295,1117.834 302.411,1112.745 304.644,1103.553 C305.007,1102.100 305.579,1101.372 306.358,1101.372 C306.617,1101.424 306.903,1101.528 307.215,1101.683 C315.212,1105.631 322.612,1107.604 329.416,1107.604 C333.156,1107.604 336.868,1106.669 340.556,1104.799 C345.022,1102.567 347.256,1099.763 347.256,1096.386 L347.256,1091.167 C341.958,1096.152 335.154,1098.645 326.846,1098.645 ZM348.035,1063.824 C348.035,1060.034 346.775,1056.749 344.256,1053.970 C341.737,1051.192 338.582,1049.802 334.792,1049.802 C331.000,1049.802 327.845,1051.218 325.327,1054.048 C322.807,1056.879 321.549,1060.190 321.549,1063.980 C321.549,1067.771 322.834,1071.043 325.405,1073.795 C327.975,1076.548 331.103,1077.924 334.792,1077.924 C338.582,1077.924 341.737,1076.522 344.256,1073.717 C346.775,1070.913 348.035,1067.616 348.035,1063.824 ZM423.460,1028.302 C431.613,1028.302 438.053,1031.159 442.779,1036.871 C442.986,1037.131 443.169,1037.260 443.325,1037.260 C443.792,1037.260 444.324,1036.002 444.922,1033.482 C445.518,1030.964 446.232,1029.704 447.064,1029.704 C448.985,1029.704 452.646,1030.249 458.048,1031.340 C463.189,1032.379 466.876,1033.262 469.109,1033.988 C469.888,1034.300 470.278,1034.716 470.278,1035.235 C470.278,1035.443 470.200,1035.988 470.044,1036.871 C468.382,1046.271 467.551,1056.217 467.551,1066.706 C467.551,1070.706 467.785,1076.652 468.253,1084.545 C468.720,1092.440 468.954,1098.360 468.954,1102.307 C468.954,1104.384 468.044,1105.500 466.227,1105.656 C459.787,1106.124 452.412,1106.357 444.104,1106.357 C443.116,1106.357 442.454,1104.865 442.117,1101.878 C441.779,1098.892 441.377,1097.373 440.910,1097.321 C440.493,1097.529 439.948,1097.971 439.274,1098.645 C433.457,1104.514 427.225,1107.448 420.578,1107.448 C410.451,1107.448 402.063,1103.449 395.416,1095.451 C389.132,1087.973 385.990,1079.041 385.990,1068.654 C385.990,1056.657 389.235,1046.998 395.728,1039.675 C402.478,1032.093 411.723,1028.302 423.460,1028.302 ZM416.839,1078.002 C419.747,1081.014 423.278,1082.520 427.433,1082.520 C431.847,1082.520 435.457,1081.079 438.261,1078.197 C441.066,1075.314 442.468,1071.641 442.468,1067.174 C442.468,1062.760 441.078,1059.111 438.300,1056.229 C435.521,1053.347 431.899,1051.905 427.433,1051.905 C422.966,1051.905 419.357,1053.334 416.605,1056.190 C413.852,1059.047 412.476,1062.708 412.476,1067.174 C412.476,1071.380 413.930,1074.991 416.839,1078.002 ZM394.000,942.000 C448.206,942.939 498.786,934.511 543.000,922.000 C557.270,917.962 570.124,917.527 584.000,913.000 C619.361,901.463 654.481,891.297 687.000,877.000 C716.989,863.815 741.862,844.599 767.000,827.000 C778.332,820.667 789.668,814.333 801.000,808.000 C805.777,805.513 811.327,804.529 815.000,801.000 C815.667,801.000 816.333,801.000 817.000,801.000 C817.000,801.333 817.000,801.667 817.000,802.000 C816.667,802.000 816.333,802.000 816.000,802.000 C804.636,818.712 777.749,838.719 761.000,851.000 C717.498,882.899 671.165,909.956 614.000,929.000 C587.370,937.871 558.466,940.138 529.000,947.000 C522.334,947.333 515.666,947.667 509.000,948.000 C487.786,952.637 446.303,951.668 426.000,947.000 C415.653,944.621 400.833,947.903 394.000,942.000 ZM481.358,1088.908 C484.993,1088.233 488.654,1087.558 492.342,1086.882 C496.911,1085.429 499.197,1083.040 499.197,1079.716 C499.197,1077.431 497.873,1074.782 495.224,1071.770 C490.498,1066.525 488.031,1063.746 487.824,1063.435 C485.175,1059.695 483.851,1055.749 483.851,1051.594 C483.851,1043.804 487.797,1037.182 495.692,1031.729 C502.754,1026.900 510.310,1024.485 518.361,1024.485 C519.191,1024.485 521.243,1027.277 524.515,1032.859 C527.787,1038.442 529.422,1041.701 529.422,1042.635 C529.422,1043.155 529.033,1043.856 528.254,1044.739 C526.799,1044.376 525.345,1044.193 523.892,1044.193 C520.827,1044.193 518.256,1044.869 516.179,1046.219 C513.687,1047.777 512.440,1049.985 512.440,1052.840 C512.440,1054.659 513.765,1056.969 516.413,1059.773 C520.412,1063.980 522.879,1066.811 523.814,1068.264 C526.462,1072.212 527.787,1076.444 527.787,1080.962 C527.787,1083.611 527.267,1086.415 526.229,1089.375 C525.033,1092.647 523.528,1095.036 521.710,1096.542 C517.867,1099.866 513.375,1102.670 508.234,1104.955 C502.676,1107.343 497.561,1108.538 492.887,1108.538 C491.848,1108.538 489.524,1105.721 485.915,1100.086 C482.305,1094.452 480.501,1091.011 480.501,1089.765 C480.501,1089.297 480.786,1089.012 481.358,1088.908 ZM557.018,1025.575 C552.655,1025.575 549.045,1024.434 546.190,1022.148 C543.074,1019.655 541.516,1016.280 541.516,1012.021 C541.516,1007.970 543.125,1004.647 546.345,1002.050 C549.306,999.661 552.862,998.466 557.018,998.466 C561.068,998.466 564.574,999.687 567.534,1002.127 C570.701,1004.725 572.286,1008.022 572.286,1012.021 C572.286,1021.057 567.196,1025.575 557.018,1025.575 ZM543.307,1031.496 C544.761,1031.496 546.981,1031.651 549.968,1031.963 C552.953,1032.275 555.199,1032.430 556.706,1032.430 C558.212,1032.430 560.471,1032.301 563.483,1032.041 C566.495,1031.782 568.754,1031.651 570.261,1031.651 C571.507,1031.651 572.130,1032.171 572.130,1033.209 C572.130,1033.418 572.078,1033.911 571.974,1034.690 C570.831,1044.817 570.261,1056.554 570.261,1069.900 C570.261,1073.692 570.338,1079.339 570.494,1086.843 C570.650,1094.349 570.728,1099.970 570.728,1103.709 C570.728,1104.799 570.078,1105.449 568.780,1105.656 C567.014,1105.968 563.041,1106.124 556.862,1106.124 C550.630,1106.124 546.630,1105.968 544.865,1105.656 C543.722,1105.449 543.021,1105.111 542.762,1104.644 C542.657,1104.437 542.606,1103.658 542.606,1102.307 C542.606,1098.723 542.684,1093.336 542.840,1086.142 C542.996,1078.950 543.074,1073.536 543.074,1069.900 C543.074,1055.152 542.501,1043.414 541.360,1034.690 C541.255,1033.859 541.204,1033.314 541.204,1033.054 C541.204,1032.015 541.905,1031.496 543.307,1031.496 ZM588.274,1052.373 C588.274,1046.349 588.014,1035.054 587.495,1018.486 C587.443,1014.176 587.209,1007.763 586.794,999.245 L586.716,997.921 C586.664,996.883 587.754,996.363 589.988,996.363 C592.843,996.363 597.128,996.273 602.841,996.090 C608.554,995.909 612.838,995.818 615.695,995.818 C616.266,995.818 617.070,996.908 618.110,999.089 L640.856,1049.023 C642.466,1052.400 643.817,1054.087 644.907,1054.087 C645.478,1054.087 646.699,1052.139 648.569,1048.244 C653.813,1037.338 661.578,1020.901 671.861,998.934 C672.743,996.908 673.703,995.896 674.743,995.896 C676.248,995.896 678.521,995.973 681.559,996.129 C684.597,996.285 686.895,996.363 688.453,996.363 C689.751,996.363 691.737,996.234 694.412,995.973 C697.087,995.714 699.073,995.584 700.372,995.584 C701.930,995.584 702.709,996.207 702.709,997.454 C702.709,1003.582 702.487,1012.735 702.047,1024.913 C701.605,1037.092 701.385,1046.246 701.385,1052.373 C701.385,1058.034 701.618,1066.525 702.086,1077.846 C702.553,1089.168 702.787,1097.633 702.787,1103.241 C702.787,1104.852 702.033,1105.656 700.528,1105.656 L672.951,1105.656 C671.444,1105.656 670.692,1104.748 670.692,1102.930 C670.692,1097.685 670.887,1089.817 671.276,1079.326 C671.666,1068.836 671.861,1060.969 671.861,1055.722 C671.861,1054.217 671.627,1053.412 671.159,1053.308 C670.587,1053.619 667.109,1061.643 660.721,1077.379 C656.982,1086.623 653.242,1095.841 649.503,1105.033 C648.984,1106.227 648.335,1106.928 647.556,1107.136 C647.295,1107.187 646.257,1107.214 644.440,1107.214 C641.739,1107.214 640.129,1106.694 639.610,1105.656 C636.806,1099.944 633.118,1091.634 628.548,1080.728 C623.666,1069.199 620.005,1060.864 617.564,1055.722 C617.460,1055.463 617.226,1055.177 616.863,1054.866 C616.499,1055.333 616.318,1056.086 616.318,1057.125 C616.318,1062.215 616.447,1069.849 616.708,1080.027 C616.967,1090.207 617.097,1097.841 617.097,1102.930 C617.097,1104.748 616.369,1105.656 614.916,1105.656 L588.897,1105.656 C587.858,1105.656 587.222,1105.488 586.989,1105.150 C586.755,1104.813 586.638,1104.228 586.638,1103.397 C586.638,1097.737 586.911,1089.233 587.456,1077.885 C588.001,1066.538 588.274,1058.034 588.274,1052.373 ZM749.701,997.454 C750.324,995.480 751.051,994.493 751.882,994.493 C753.284,994.493 755.452,994.624 758.387,994.883 C761.320,995.143 763.515,995.272 764.969,995.272 C766.372,995.272 768.436,995.182 771.162,995.000 C773.889,994.818 775.926,994.727 777.277,994.727 C778.263,994.727 779.173,995.584 780.004,997.298 C782.548,1002.751 789.975,1021.447 802.283,1053.386 C814.643,1085.533 820.823,1102.307 820.823,1103.709 C820.823,1104.644 820.173,1105.293 818.876,1105.656 C817.318,1106.071 812.488,1106.279 804.387,1106.279 C796.959,1106.279 792.182,1106.071 790.053,1105.656 C788.287,1105.293 787.171,1104.125 786.703,1102.151 C784.937,1094.672 783.561,1090.674 782.575,1090.154 C781.743,1089.791 774.785,1089.609 761.698,1089.609 C752.868,1089.609 748.169,1089.843 747.598,1090.310 C746.714,1091.141 745.728,1093.920 744.638,1098.645 C743.650,1102.956 742.456,1105.293 741.054,1105.656 C739.288,1106.071 733.368,1106.279 723.293,1106.279 C715.347,1106.279 711.374,1105.527 711.374,1104.020 C711.374,1102.670 717.242,1086.078 728.980,1054.242 C741.703,1019.811 748.610,1000.881 749.701,997.454 ZM760.529,1063.435 C762.138,1063.539 764.787,1063.590 768.475,1063.590 C771.902,1063.590 773.798,1063.175 774.161,1062.344 C774.265,1062.085 774.317,1061.721 774.317,1061.253 C774.317,1059.540 773.122,1054.814 770.734,1047.076 C768.397,1039.597 766.683,1034.820 765.593,1032.742 C764.502,1035.028 762.658,1039.987 760.062,1047.621 C757.257,1055.722 755.855,1060.474 755.855,1061.877 C755.855,1062.811 757.413,1063.331 760.529,1063.435 ZM831.203,1052.373 C831.203,1046.401 830.956,1037.468 830.463,1025.575 C829.969,1013.683 829.723,1004.776 829.723,998.856 C829.723,997.714 830.735,997.142 832.761,997.142 C835.772,997.142 839.486,996.935 843.900,996.519 C844.939,996.415 846.990,996.078 850.054,995.506 C852.651,995.039 854.702,994.805 856.209,994.805 C856.832,994.805 857.792,995.689 859.091,997.454 L888.147,1037.260 C890.744,1040.844 894.664,1046.090 899.910,1052.996 C901.208,1054.606 902.325,1055.411 903.260,1055.411 C903.934,1055.411 904.273,1053.386 904.273,1049.335 C904.273,1043.882 903.973,1035.677 903.377,1024.718 C902.779,1013.761 902.481,1005.530 902.481,1000.024 C902.481,998.103 903.026,997.142 904.117,997.142 C907.233,997.142 911.932,997.013 918.217,996.752 C924.500,996.493 929.201,996.363 932.317,996.363 C933.302,996.363 933.797,997.169 933.797,998.778 C933.797,1004.698 933.550,1013.592 933.057,1025.458 C932.562,1037.326 932.317,1046.246 932.317,1052.217 L932.317,1103.553 C932.317,1104.955 931.563,1105.656 930.057,1105.656 C928.811,1105.656 926.928,1105.707 924.410,1105.812 C921.890,1105.915 920.008,1105.968 918.762,1105.968 C917.411,1105.968 915.386,1105.863 912.686,1105.656 C909.985,1105.449 907.960,1105.345 906.610,1105.345 C905.675,1105.345 904.557,1104.488 903.260,1102.774 C899.521,1097.737 891.108,1086.571 878.020,1069.277 C874.437,1064.447 868.984,1057.333 861.662,1047.933 C861.453,1047.621 861.064,1047.309 860.493,1046.998 C860.077,1047.362 859.870,1047.933 859.870,1048.712 C859.870,1054.737 860.038,1063.773 860.376,1075.821 C860.713,1087.870 860.883,1096.906 860.883,1102.930 C860.883,1104.748 860.181,1105.656 858.779,1105.656 L831.826,1105.656 C830.319,1105.656 829.567,1104.852 829.567,1103.241 C829.567,1097.633 829.839,1089.168 830.385,1077.846 C830.930,1066.525 831.203,1058.034 831.203,1052.373 Z"/>
</svg>